<?xml version="1.0" standalone="no"?>
<!DOCTYPE svg PUBLIC "-//W3C//DTD SVG 20010904//EN"
 "http://www.w3.org/TR/2001/REC-SVG-20010904/DTD/svg10.dtd">
<svg version="1.0" xmlns="http://www.w3.org/2000/svg"
 width="106.000000pt" height="34.000000pt" viewBox="0 0 106.000000 34.000000"
 preserveAspectRatio="xMidYMid meet">
<metadata>
Created by potrace 1.15, written by Peter Selinger 2001-2017
</metadata>
<g transform="translate(0.000000,34.000000) scale(0.100000,-0.100000)"
fill="#000000" stroke="none">
<path d="M0 170 l0 -170 530 0 530 0 0 170 0 170 -530 0 -530 0 0 -170z m122
40 c7 -11 18 -20 25 -20 8 0 14 -14 15 -32 l1 -33 4 33 c4 29 7 32 41 34 59 2
76 -1 90 -19 11 -16 12 -16 12 0 0 10 8 17 19 17 12 0 18 7 17 18 -1 11 6 17
19 17 13 0 20 -6 19 -17 -1 -11 5 -18 17 -18 11 0 19 -7 20 -17 1 -17 2 -17 6
0 3 12 14 17 36 17 87 0 87 0 87 20 0 13 7 20 20 20 18 0 20 -7 20 -70 l0 -70
-55 0 c-40 0 -57 4 -61 15 -8 19 -24 19 -24 0 0 -9 -9 -15 -25 -15 -17 0 -25
6 -25 18 -1 16 -1 16 -11 -1 -13 -22 -35 -22 -48 1 -10 16 -10 16 -11 0 0 -12
-8 -18 -24 -18 -18 0 -27 8 -35 30 -13 39 -31 39 -31 0 0 -29 -1 -30 -49 -30
-28 0 -53 5 -57 11 -4 8 -9 8 -17 0 -18 -18 -65 -13 -77 8 -8 16 -6 22 7 30
10 6 12 11 6 11 -16 0 -17 52 -1 68 19 19 56 14 70 -8z m546 -33 c2 -26 7 -47
13 -47 5 0 9 7 9 15 0 27 38 56 65 49 21 -5 25 -3 25 15 0 14 6 21 20 21 11 0
20 -6 20 -13 0 -20 43 -37 64 -25 23 13 42 -4 50 -44 10 -52 0 -56 -164 -57
l-150 0 0 63 c0 67 5 78 30 74 10 -2 16 -17 18 -51z"/>
</g>
</svg>
