<?xml version="1.0" standalone="no"?>
<!DOCTYPE svg PUBLIC "-//W3C//DTD SVG 20010904//EN"
 "http://www.w3.org/TR/2001/REC-SVG-20010904/DTD/svg10.dtd">
<svg version="1.0" xmlns="http://www.w3.org/2000/svg"
 width="106.000000pt" height="34.000000pt" viewBox="0 0 106.000000 34.000000"
 preserveAspectRatio="xMidYMid meet">
<metadata>
Created by potrace 1.15, written by Peter Selinger 2001-2017
</metadata>
<g transform="translate(0.000000,34.000000) scale(0.100000,-0.100000)"
fill="#000000" stroke="none">
<path d="M0 308 l0 -33 79 3 c69 3 82 1 91 -15 9 -14 22 -17 63 -14 31 2 55 9
60 17 6 10 28 14 73 14 55 0 67 -3 71 -18 3 -14 12 -17 34 -14 16 2 29 10 29
18 0 11 22 14 105 14 88 0 106 -3 114 -17 10 -17 10 -17 11 0 0 16 9 18 73 17
39 -1 114 -1 165 -1 l92 1 0 30 0 30 -530 0 -530 0 0 -32z"/>
<path d="M990 82 c0 -42 -4 -42 -507 -42 -476 0 -483 0 -483 -20 0 -20 7 -20
530 -20 l530 0 0 50 0 50 -35 0 c-27 0 -35 -4 -35 -18z"/>
</g>
</svg>
